<?xml version="1.0"?>
<svg width="281.25" height="281.25" xmlns="http://www.w3.org/2000/svg" xmlns:svg="http://www.w3.org/2000/svg" version="1.1" xml:space="preserve">

 <g class="layer">
  <title>Layer 1</title>
  <g id="layer1" transform="rotate(105.027 140.626 140.622)">
   <g id="g25569" transform="translate(-2256.22 -367.437)">
    <path d="m2400.63,438.42c-1.93,0.03 -3.87,0.21 -5.79,0.57c-7.21,1.33 -13.9,4.95 -18.97,10.25a4.69,4.69 0 0 0 -0.73,0.99a4.69,4.69 0 0 0 -0.01,0.01l-86.38,159.38a4.69,4.69 0 0 0 -0.26,1.07a4.69,4.69 0 0 0 -0.28,1.19a4.69,4.69 0 0 0 0.28,1.14a4.69,4.69 0 0 0 0.28,1.11a4.69,4.69 0 0 0 0.08,0.08a4.69,4.69 0 0 0 0.81,0.84a4.69,4.69 0 0 0 0.9,0.85a4.69,4.69 0 0 0 0.07,0.07a4.69,4.69 0 0 0 1.05,0.25a4.69,4.69 0 0 0 1.22,0.29a4.69,4.69 0 0 0 1.13,-0.28a4.69,4.69 0 0 0 1.12,-0.28l159.17,-88.71a4.69,4.69 0 0 0 0.11,-0.07a4.69,4.69 0 0 0 0.06,-0.03c7.88,-4.84 13.14,-13.28 14,-22.49c0.67,-7.12 -1.29,-14.32 -5.47,-20.12a4.69,4.69 0 0 0 -0.01,-0.01c-0.03,-0.04 -0.05,-0.08 -0.08,-0.12a4.69,4.69 0 0 0 -0.03,-0.03a4.69,4.69 0 0 0 -0.51,-0.58l-38.35,-36.94a4.69,4.69 0 0 0 -0.03,-0.02a4.69,4.69 0 0 0 -0.21,-0.19c-5.97,-5.02 -13.52,-7.88 -21.24,-8.2c-0.64,-0.02 -1.29,-0.03 -1.93,-0.02zm0.11,9.39c6.09,-0.06 12.29,2.06 16.93,5.92l37.89,36.49c2.72,3.88 4.04,8.84 3.6,13.55c-0.57,6.13 -4.31,12.13 -9.54,15.36l-144.94,80.77l29.44,-54.31l12.29,8.51a4.69,4.69 0 0 0 6.52,-1.19a4.69,4.69 0 0 0 -1.19,-6.52l-13.13,-9.09l16.44,-30.34l20.4,18.31a4.69,4.69 0 0 0 6.63,-0.36a4.69,4.69 0 0 0 -0.36,-6.61l-22.07,-19.81l15.8,-29.15l28.43,25.97a4.69,4.69 0 0 0 6.63,-0.3a4.69,4.69 0 0 0 -0.3,-6.62l-30.16,-27.55l3,-5.54c3.64,-3.62 8.45,-6.16 13.5,-7.09c1.37,-0.26 2.78,-0.39 4.19,-0.4z" fill="#fba021" id="path4934" stroke-linecap="round" stroke-linejoin="round"/>
    <path d="m2500.19,399.61a4.69,4.69 0 0 0 -3.27,1.48l-46.93,50.06l12.5,-42.69a4.69,4.69 0 0 0 -3.18,-5.82a4.69,4.69 0 0 0 -5.82,3.18l-15.85,54.13l10.9,10.49l53.94,-20.52a4.69,4.69 0 0 0 2.71,-6.05a4.69,4.69 0 0 0 -6.04,-2.71l-41.89,15.94l46.5,-49.6a4.69,4.69 0 0 0 -0.22,-6.62a4.69,4.69 0 0 0 -3.35,-1.27z" fill="#333333" id="path4954" stroke-linecap="round" stroke-linejoin="round"/>
   </g>
  </g>
 </g>
</svg>